<mxfile host="app.diagrams.net" modified="2023-11-30T13:36:42.956Z" agent="Mozilla/5.0 (Macintosh; Intel Mac OS X 10.15; rv:120.0) Gecko/20100101 Firefox/120.0" etag="V0kOWwu9h5kknyW2YsB5" version="22.1.5" type="github">
  <diagram name="Page-1" id="SIulgqLtBxGV47W7qyev">
    <mxGraphModel dx="906" dy="588" grid="1" gridSize="10" guides="1" tooltips="1" connect="1" arrows="1" fold="1" page="1" pageScale="1" pageWidth="827" pageHeight="1169" math="0" shadow="0">
      <root>
        <mxCell id="0" />
        <mxCell id="1" parent="0" />
        <mxCell id="i5s1LHygfZpYdUsU7F8D-1" value="&lt;p style=&quot;margin:0px;margin-top:4px;text-align:center;text-decoration:underline;&quot;&gt;&lt;b&gt;point d&#39;intérêt PI&lt;/b&gt;&lt;br&gt;&lt;/p&gt;&lt;br&gt;&lt;hr&gt;&lt;p style=&quot;margin:0px;margin-left:8px;&quot;&gt;- reference (primary_key)&lt;br&gt;&lt;/p&gt;&lt;p style=&quot;margin:0px;margin-left:8px;&quot;&gt;- adresse_forme_editoriale&lt;/p&gt;&lt;p style=&quot;margin:0px;margin-left:8px;&quot;&gt;- coordonées { lon:&lt;/p&gt;&lt;p style=&quot;margin:0px;margin-left:8px;&quot;&gt;&lt;span style=&quot;white-space: pre;&quot;&gt;&#x9;&lt;/span&gt;&lt;span style=&quot;white-space: pre;&quot;&gt;&#x9;&lt;/span&gt;&lt;span style=&quot;white-space: pre;&quot;&gt;&#x9;&lt;/span&gt;lat: }&lt;/p&gt;&lt;p style=&quot;margin:0px;margin-left:8px;&quot;&gt;- must_see(bool) &lt;br&gt;&lt;/p&gt;&lt;p style=&quot;margin:0px;margin-left:8px;&quot;&gt;&lt;br&gt;&lt;/p&gt;" style="verticalAlign=top;align=left;overflow=fill;fontSize=12;fontFamily=Helvetica;html=1;whiteSpace=wrap;" parent="1" vertex="1">
          <mxGeometry x="50" y="70" width="210" height="140" as="geometry" />
        </mxCell>
        <mxCell id="TksDYWeNa5g1tYwS7Oo3-40" style="edgeStyle=orthogonalEdgeStyle;rounded=0;orthogonalLoop=1;jettySize=auto;html=1;exitX=0.25;exitY=0;exitDx=0;exitDy=0;entryX=1;entryY=0.75;entryDx=0;entryDy=0;endArrow=open;endFill=0;startArrow=open;startFill=0;" edge="1" parent="1" source="TksDYWeNa5g1tYwS7Oo3-5" target="i5s1LHygfZpYdUsU7F8D-1">
          <mxGeometry relative="1" as="geometry" />
        </mxCell>
        <mxCell id="TksDYWeNa5g1tYwS7Oo3-43" value="Foreign key" style="edgeLabel;html=1;align=center;verticalAlign=middle;resizable=0;points=[];" vertex="1" connectable="0" parent="TksDYWeNa5g1tYwS7Oo3-40">
          <mxGeometry x="0.0648" y="1" relative="1" as="geometry">
            <mxPoint x="1" y="9" as="offset" />
          </mxGeometry>
        </mxCell>
        <mxCell id="TksDYWeNa5g1tYwS7Oo3-5" value="&lt;p style=&quot;margin:0px;margin-top:4px;text-align:center;text-decoration:underline;&quot;&gt;&lt;b&gt;Monument&lt;/b&gt;&lt;/p&gt;&lt;hr&gt;&lt;p style=&quot;margin:0px;margin-left:8px;&quot;&gt;- id (primary_key)&lt;br&gt;&lt;/p&gt;&lt;p style=&quot;margin:0px;margin-left:8px;&quot;&gt;- reference_PI (foreign_key)&lt;br&gt;- historique&lt;/p&gt;&lt;p style=&quot;margin:0px;margin-left:8px;&quot;&gt;- auteur_ de_l&#39;édifice&lt;/p&gt;&lt;p style=&quot;margin:0px;margin-left:8px;&quot;&gt;- datation_de _l&#39;édifice&lt;/p&gt;&lt;p style=&quot;margin:0px;margin-left:8px;&quot;&gt;- siecle_de _la_..._construction&lt;/p&gt;&lt;p style=&quot;margin:0px;margin-left:8px;&quot;&gt;&lt;/p&gt;&lt;p style=&quot;margin:0px;margin-left:8px;&quot;&gt;&lt;/p&gt;" style="verticalAlign=top;align=left;overflow=fill;fontSize=12;fontFamily=Helvetica;html=1;whiteSpace=wrap;" vertex="1" parent="1">
          <mxGeometry x="270" y="260" width="210" height="130" as="geometry" />
        </mxCell>
        <mxCell id="TksDYWeNa5g1tYwS7Oo3-7" value="&lt;font style=&quot;font-size: 35px;&quot;&gt;&lt;b&gt;&lt;u&gt;&lt;font style=&quot;font-size: 35px;&quot;&gt;Hackacton 1:&lt;/font&gt;&lt;/u&gt;&lt;/b&gt; &lt;font style=&quot;font-size: 35px;&quot;&gt;Db UML&lt;/font&gt;&lt;/font&gt; " style="text;html=1;align=center;verticalAlign=middle;resizable=0;points=[];autosize=1;strokeColor=none;fillColor=none;" vertex="1" parent="1">
          <mxGeometry x="15" width="380" height="60" as="geometry" />
        </mxCell>
        <mxCell id="TksDYWeNa5g1tYwS7Oo3-8" value="&lt;b&gt;&lt;u&gt;&lt;font style=&quot;font-size: 34px;&quot;&gt;Hackacton 2:&lt;/font&gt;&lt;/u&gt;&lt;/b&gt;&lt;font style=&quot;font-size: 35px;&quot;&gt; &lt;font style=&quot;font-size: 35px;&quot;&gt;Db UML&lt;/font&gt;&lt;/font&gt;" style="text;html=1;align=center;verticalAlign=middle;resizable=0;points=[];autosize=1;strokeColor=none;fillColor=none;" vertex="1" parent="1">
          <mxGeometry y="970" width="370" height="60" as="geometry" />
        </mxCell>
        <mxCell id="TksDYWeNa5g1tYwS7Oo3-76" style="edgeStyle=orthogonalEdgeStyle;rounded=0;orthogonalLoop=1;jettySize=auto;html=1;exitX=0.25;exitY=1;exitDx=0;exitDy=0;entryX=1;entryY=0.5;entryDx=0;entryDy=0;endArrow=open;endFill=0;" edge="1" parent="1" source="TksDYWeNa5g1tYwS7Oo3-11" target="TksDYWeNa5g1tYwS7Oo3-63">
          <mxGeometry relative="1" as="geometry" />
        </mxCell>
        <mxCell id="TksDYWeNa5g1tYwS7Oo3-11" value="&lt;p style=&quot;margin:0px;margin-top:4px;text-align:center;text-decoration:underline;&quot;&gt;&lt;b&gt;Misc_fact&lt;br&gt;&lt;/b&gt;&lt;/p&gt;&lt;hr&gt;&lt;div&gt;&amp;nbsp; - id (primary_key)&lt;br&gt;&lt;/div&gt;&lt;div&gt;&amp;nbsp; - reference_PI (foreign_key)&lt;/div&gt;&lt;div&gt;&amp;nbsp; - is_main&lt;/div&gt;&lt;div&gt;&lt;br&gt;&lt;/div&gt;&lt;div&gt;&lt;br&gt;&lt;/div&gt;&lt;div&gt;&amp;nbsp; - fait&amp;nbsp; &lt;br&gt;&lt;/div&gt;&lt;div&gt;&amp;nbsp; -date&lt;/div&gt;&lt;div&gt;&amp;nbsp; -...&lt;br&gt;&lt;/div&gt;" style="verticalAlign=top;align=left;overflow=fill;fontSize=12;fontFamily=Helvetica;html=1;whiteSpace=wrap;" vertex="1" parent="1">
          <mxGeometry x="540" y="1440" width="180" height="190" as="geometry" />
        </mxCell>
        <mxCell id="TksDYWeNa5g1tYwS7Oo3-46" style="edgeStyle=orthogonalEdgeStyle;rounded=0;orthogonalLoop=1;jettySize=auto;html=1;entryX=1;entryY=0.346;entryDx=0;entryDy=0;startArrow=open;startFill=0;endArrow=open;endFill=0;entryPerimeter=0;exitX=0.006;exitY=0.087;exitDx=0;exitDy=0;exitPerimeter=0;strokeColor=default;" edge="1" parent="1" source="TksDYWeNa5g1tYwS7Oo3-13" target="TksDYWeNa5g1tYwS7Oo3-5">
          <mxGeometry relative="1" as="geometry" />
        </mxCell>
        <mxCell id="TksDYWeNa5g1tYwS7Oo3-47" value="Foreign key" style="edgeLabel;html=1;align=center;verticalAlign=middle;resizable=0;points=[];" vertex="1" connectable="0" parent="TksDYWeNa5g1tYwS7Oo3-46">
          <mxGeometry x="0.4133" y="3" relative="1" as="geometry">
            <mxPoint x="13" y="-38" as="offset" />
          </mxGeometry>
        </mxCell>
        <mxCell id="TksDYWeNa5g1tYwS7Oo3-13" value="&lt;p style=&quot;margin:0px;margin-top:4px;text-align:center;text-decoration:underline;&quot;&gt;&lt;b&gt;Image&lt;/b&gt;&lt;/p&gt;&lt;hr&gt;&lt;p style=&quot;margin:0px;margin-left:8px;&quot;&gt;- id (primary key / auto_inc)&lt;/p&gt;&lt;p style=&quot;margin:0px;margin-left:8px;&quot;&gt;- ref&lt;/p&gt;&lt;p style=&quot;margin:0px;margin-left:8px;&quot;&gt;- reference_point (foreign_key)&lt;br&gt;&lt;/p&gt;&lt;p style=&quot;margin:0px;margin-left:8px;&quot;&gt;- id_monument&lt;br&gt;&lt;/p&gt;&lt;p style=&quot;margin:0px;margin-left:8px;&quot;&gt;- url&lt;/p&gt;&lt;p style=&quot;margin:0px;margin-left:8px;&quot;&gt;- autop&lt;/p&gt;&lt;p style=&quot;margin:0px;margin-left:8px;&quot;&gt;- leg&lt;/p&gt;&lt;p style=&quot;margin:0px;margin-left:8px;&quot;&gt;- edif&lt;br&gt;&lt;/p&gt;" style="verticalAlign=top;align=left;overflow=fill;fontSize=12;fontFamily=Helvetica;html=1;whiteSpace=wrap;" vertex="1" parent="1">
          <mxGeometry x="620" y="240" width="180" height="170" as="geometry" />
        </mxCell>
        <mxCell id="TksDYWeNa5g1tYwS7Oo3-41" value="1" style="edgeLabel;resizable=0;html=1;align=left;verticalAlign=bottom;" connectable="0" vertex="1" parent="1">
          <mxGeometry x="270" y="170" as="geometry" />
        </mxCell>
        <mxCell id="TksDYWeNa5g1tYwS7Oo3-42" value="1" style="edgeLabel;resizable=0;html=1;align=right;verticalAlign=bottom;" connectable="0" vertex="1" parent="1">
          <mxGeometry x="560" y="250" as="geometry">
            <mxPoint x="-221" y="-4" as="offset" />
          </mxGeometry>
        </mxCell>
        <mxCell id="TksDYWeNa5g1tYwS7Oo3-68" style="edgeStyle=orthogonalEdgeStyle;rounded=0;orthogonalLoop=1;jettySize=auto;html=1;startArrow=open;startFill=0;endArrow=open;endFill=0;entryX=0.25;entryY=0;entryDx=0;entryDy=0;" edge="1" parent="1" target="TksDYWeNa5g1tYwS7Oo3-11">
          <mxGeometry relative="1" as="geometry">
            <mxPoint x="225" y="1331" as="sourcePoint" />
            <mxPoint x="560" y="1430" as="targetPoint" />
            <Array as="points">
              <mxPoint x="225" y="1330" />
              <mxPoint x="560" y="1330" />
            </Array>
          </mxGeometry>
        </mxCell>
        <mxCell id="TksDYWeNa5g1tYwS7Oo3-57" value="&lt;p style=&quot;margin:0px;margin-top:4px;text-align:center;text-decoration:underline;&quot;&gt;&lt;b&gt;point_of_interest&lt;/b&gt;&lt;br&gt;&lt;/p&gt;&lt;br&gt;&lt;hr&gt;&lt;p style=&quot;margin:0px;margin-left:8px;&quot;&gt;- reference (primary_key)&lt;br&gt;&lt;/p&gt;&lt;p style=&quot;margin:0px;margin-left:8px;&quot;&gt;- adresse_forme_editoriale&lt;/p&gt;&lt;p style=&quot;margin:0px;margin-left:8px;&quot;&gt;- coordonées { lon:&lt;/p&gt;&lt;p style=&quot;margin:0px;margin-left:8px;&quot;&gt;&lt;span style=&quot;&quot;&gt;&lt;span style=&quot;&quot;&gt;&amp;nbsp;&amp;nbsp;&amp;nbsp;&amp;nbsp;&lt;/span&gt;&lt;/span&gt;&lt;span style=&quot;&quot;&gt;&lt;span style=&quot;&quot;&gt;&amp;nbsp;&amp;nbsp;&amp;nbsp;&amp;nbsp;&lt;/span&gt;&lt;/span&gt;&lt;span style=&quot;&quot;&gt;&lt;span style=&quot;&quot;&gt;&amp;nbsp;&amp;nbsp;&amp;nbsp;&amp;nbsp;&lt;/span&gt;&lt;/span&gt;lat: }&lt;/p&gt;&lt;p style=&quot;margin:0px;margin-left:8px;&quot;&gt;&lt;br&gt;&lt;/p&gt;&lt;p style=&quot;margin:0px;margin-left:8px;&quot;&gt;- is_monument&lt;/p&gt;&lt;p style=&quot;margin:0px;margin-left:8px;&quot;&gt;- is_miscfact&lt;/p&gt;&lt;p style=&quot;margin:0px;margin-left:8px;&quot;&gt;&lt;br&gt;&lt;/p&gt;&lt;p style=&quot;margin:0px;margin-left:8px;&quot;&gt;&lt;br&gt;&lt;/p&gt;" style="verticalAlign=top;align=left;overflow=fill;fontSize=12;fontFamily=Helvetica;html=1;whiteSpace=wrap;" vertex="1" parent="1">
          <mxGeometry x="15" y="1260" width="210" height="200" as="geometry" />
        </mxCell>
        <mxCell id="TksDYWeNa5g1tYwS7Oo3-58" style="edgeStyle=orthogonalEdgeStyle;rounded=0;orthogonalLoop=1;jettySize=auto;html=1;exitX=0.25;exitY=0;exitDx=0;exitDy=0;entryX=1;entryY=0.75;entryDx=0;entryDy=0;endArrow=open;endFill=0;startArrow=open;startFill=0;" edge="1" parent="1" source="TksDYWeNa5g1tYwS7Oo3-60" target="TksDYWeNa5g1tYwS7Oo3-57">
          <mxGeometry relative="1" as="geometry" />
        </mxCell>
        <mxCell id="TksDYWeNa5g1tYwS7Oo3-59" value="Foreign key" style="edgeLabel;html=1;align=center;verticalAlign=middle;resizable=0;points=[];" vertex="1" connectable="0" parent="TksDYWeNa5g1tYwS7Oo3-58">
          <mxGeometry x="0.0648" y="1" relative="1" as="geometry">
            <mxPoint x="19" y="-21" as="offset" />
          </mxGeometry>
        </mxCell>
        <mxCell id="TksDYWeNa5g1tYwS7Oo3-66" style="edgeStyle=orthogonalEdgeStyle;rounded=0;orthogonalLoop=1;jettySize=auto;html=1;exitX=0.25;exitY=1;exitDx=0;exitDy=0;entryX=1;entryY=0.25;entryDx=0;entryDy=0;startArrow=none;startFill=0;endArrow=open;endFill=0;" edge="1" parent="1" source="TksDYWeNa5g1tYwS7Oo3-60" target="TksDYWeNa5g1tYwS7Oo3-63">
          <mxGeometry relative="1" as="geometry" />
        </mxCell>
        <mxCell id="TksDYWeNa5g1tYwS7Oo3-67" value="Foreign key" style="edgeLabel;html=1;align=center;verticalAlign=middle;resizable=0;points=[];" vertex="1" connectable="0" parent="TksDYWeNa5g1tYwS7Oo3-66">
          <mxGeometry x="-0.1259" y="3" relative="1" as="geometry">
            <mxPoint as="offset" />
          </mxGeometry>
        </mxCell>
        <mxCell id="TksDYWeNa5g1tYwS7Oo3-60" value="&lt;p style=&quot;margin:0px;margin-top:4px;text-align:center;text-decoration:underline;&quot;&gt;&lt;b&gt;Monument&lt;/b&gt;&lt;/p&gt;&lt;hr&gt;&lt;p style=&quot;margin:0px;margin-left:8px;&quot;&gt;- id (primary_key)&lt;br&gt;&lt;/p&gt;&lt;p style=&quot;margin:0px;margin-left:8px;&quot;&gt;- reference_PI (foreign_key)&lt;/p&gt;&lt;p style=&quot;margin:0px;margin-left:8px;&quot;&gt;- is_main&lt;/p&gt;&lt;p style=&quot;margin:0px;margin-left:8px;&quot;&gt;&lt;br&gt;&lt;/p&gt;&lt;p style=&quot;margin:0px;margin-left:8px;&quot;&gt;&lt;/p&gt;&lt;p style=&quot;margin:0px;margin-left:8px;&quot;&gt;- description(historique)&lt;br&gt;&lt;/p&gt;&lt;p style=&quot;margin:0px;margin-left:8px;&quot;&gt;- auteur (datation_de _l&#39;édifice)&lt;/p&gt;&lt;p style=&quot;margin:0px;margin-left:8px;&quot;&gt;- date (siecle_de _la_..._construction)&lt;/p&gt;&lt;p style=&quot;margin:0px;margin-left:8px;&quot;&gt;&lt;/p&gt;&lt;p style=&quot;margin:0px;margin-left:8px;&quot;&gt;&lt;/p&gt;" style="verticalAlign=top;align=left;overflow=fill;fontSize=12;fontFamily=Helvetica;html=1;whiteSpace=wrap;" vertex="1" parent="1">
          <mxGeometry x="260" y="1440" width="220" height="210" as="geometry" />
        </mxCell>
        <mxCell id="TksDYWeNa5g1tYwS7Oo3-63" value="&lt;p style=&quot;margin:0px;margin-top:4px;text-align:center;text-decoration:underline;&quot;&gt;&lt;b&gt;Image&lt;/b&gt;&lt;/p&gt;&lt;hr&gt;&lt;p style=&quot;margin:0px;margin-left:8px;&quot;&gt;- id (primary key)&lt;/p&gt;&lt;p style=&quot;margin:0px;margin-left:8px;&quot;&gt;- id_misc_fact (foreign_key)&lt;br&gt;&lt;/p&gt;&lt;p style=&quot;margin:0px;margin-left:8px;&quot;&gt;- id_monument (foreign_key)&lt;br&gt;&lt;/p&gt;&lt;p style=&quot;margin:0px;margin-left:8px;&quot;&gt;- url&lt;/p&gt;&lt;p style=&quot;margin:0px;margin-left:8px;&quot;&gt;- autop&lt;/p&gt;&lt;p style=&quot;margin:0px;margin-left:8px;&quot;&gt;- leg&lt;/p&gt;&lt;p style=&quot;margin:0px;margin-left:8px;&quot;&gt;- edif&lt;br&gt;&lt;/p&gt;" style="verticalAlign=top;align=left;overflow=fill;fontSize=12;fontFamily=Helvetica;html=1;whiteSpace=wrap;" vertex="1" parent="1">
          <mxGeometry x="15" y="1669" width="180" height="170" as="geometry" />
        </mxCell>
        <mxCell id="TksDYWeNa5g1tYwS7Oo3-64" value="1" style="edgeLabel;resizable=0;html=1;align=left;verticalAlign=bottom;" connectable="0" vertex="1" parent="1">
          <mxGeometry x="235" y="1360" as="geometry" />
        </mxCell>
        <mxCell id="TksDYWeNa5g1tYwS7Oo3-65" value="1" style="edgeLabel;resizable=0;html=1;align=right;verticalAlign=bottom;" connectable="0" vertex="1" parent="1">
          <mxGeometry x="568" y="1430" as="geometry">
            <mxPoint x="-221" y="-4" as="offset" />
          </mxGeometry>
        </mxCell>
        <mxCell id="TksDYWeNa5g1tYwS7Oo3-72" value="&lt;p style=&quot;margin:0px;margin-top:4px;text-align:center;text-decoration:underline;&quot;&gt;&lt;b&gt;User&lt;/b&gt;&lt;/p&gt;&lt;hr&gt;" style="verticalAlign=top;align=left;overflow=fill;fontSize=12;fontFamily=Helvetica;html=1;whiteSpace=wrap;" vertex="1" parent="1">
          <mxGeometry x="520" y="1170" width="160" height="90" as="geometry" />
        </mxCell>
        <mxCell id="TksDYWeNa5g1tYwS7Oo3-77" value="&lt;p style=&quot;margin:0px;margin-top:4px;text-align:center;text-decoration:underline;&quot;&gt;&lt;b&gt;Historic_fact&lt;/b&gt;&lt;br&gt;&lt;/p&gt;&lt;hr&gt;&lt;p style=&quot;margin:0px;margin-left:8px;&quot;&gt;- ...&lt;/p&gt;&lt;p style=&quot;margin:0px;margin-left:8px;&quot;&gt;- descdant &lt;br&gt;&lt;/p&gt;" style="verticalAlign=top;align=left;overflow=fill;fontSize=12;fontFamily=Helvetica;html=1;whiteSpace=wrap;" vertex="1" parent="1">
          <mxGeometry x="690" y="1669" width="180" height="190" as="geometry" />
        </mxCell>
      </root>
    </mxGraphModel>
  </diagram>
</mxfile>
